PathFileType	4	(X/Y/Z)	SUBJ36_0_static_RCNL2025.trc
DataRate	CameraRate	NumFrames	NumMarkers	Units	OrigDataRate	OrigDataStartFrame	OrigNumFrames
100	100	4	25	mm	100	108	143
Frame#	Time	R_Shoulder			L_Shoulder			C7			J_Notch			R_Elbow			L_Elbow			R_Wrist			L_Wrist			R_Asis			L_Asis			Sacral			Thoracic			Sternum			R_Thigh_Lateral			R_Knee_Lateral			R_Shank_Lateral			R_Ankle_Lateral			R_Heel			R_Toe			L_Thigh_Lateral			L_Knee_Lateral			L_Shank_Lateral			L_Ankle_Lateral			L_Heel			L_Toe		
		X1	Y1	Z1	X2	Y2	Z2	X3	Y3	Z3	X4	Y4	Z4	X5	Y5	Z5	X6	Y6	Z6	X7	Y7	Z7	X8	Y8	Z8	X9	Y9	Z9	X10	Y10	Z10	X11	Y11	Z11	X12	Y12	Z12	X13	Y13	Z13	X14	Y14	Z14	X15	Y15	Z15	X16	Y16	Z16	X17	Y17	Z17	X18	Y18	Z18	X19	Y19	Z19	X20	Y20	Z20	X21	Y21	Z21	X22	Y22	Z22	X23	Y23	Z23	X24	Y24	Z24	X25	Y25	Z25
108	1.07000000	-322.023743	1363.014160	-74.441635	-339.997772	1345.868042	-418.338928	-401.370636	1415.760010	-229.556976	-258.841431	1319.413696	-240.304993	-340.683563	1055.903564	43.074741	-351.348511	1040.926270	-506.056030	-263.217987	830.966675	55.268327	-236.200089	837.132660	-510.198410	-232.126755	926.620117	-116.254196	-220.683929	922.456238	-345.531952	-445.297089	907.034058	-235.675491	-457.452576	1148.558350	-235.090607	-211.612808	1143.411133	-236.931335	-353.227600	513.196716	-64.494102	-358.297882	452.424042	-113.283073	-398.995758	244.396942	-71.626938	-351.235870	99.647552	-119.773102	-456.117371	48.908325	-185.500107	-289.051941	49.811001	-166.414032	-334.364563	528.017029	-427.230072	-348.717133	454.223053	-354.429169	-386.665710	242.418839	-389.711304	-400.357788	75.777184	-312.023468	-442.780121	46.242699	-261.519196	-272.003540	48.474194	-281.009674
109	1.08000000	-322.055817	1363.007202	-74.509857	-340.118378	1345.804077	-418.346161	-401.438385	1415.760498	-229.597076	-258.820312	1319.453247	-240.337067	-340.876740	1055.838623	43.072380	-351.306610	1040.908936	-505.957947	-263.401855	830.942963	55.277936	-236.302399	837.053040	-510.078110	-232.167755	926.583374	-116.250580	-220.681381	922.465820	-345.528931	-445.363831	907.044983	-235.743057	-457.590668	1148.581055	-235.113068	-211.619949	1143.372681	-236.961761	-353.249512	513.215027	-64.472183	-358.300446	452.433807	-113.283791	-399.027496	244.402420	-71.599411	-351.283936	99.685028	-119.734314	-456.117065	48.910500	-185.501312	-289.042084	49.808281	-166.409546	-334.332184	528.026062	-427.346436	-348.723907	454.264618	-354.430725	-386.634308	242.474533	-389.743591	-400.350586	75.790718	-312.053864	-442.821106	46.238693	-261.570435	-272.000153	48.555157	-281.026367
110	1.09000000	-322.100037	1363.008545	-74.511993	-340.140381	1345.782593	-418.320526	-401.425385	1415.816772	-229.652466	-258.946075	1319.418945	-240.375290	-340.821716	1055.922852	43.036854	-351.328339	1040.849121	-505.935638	-263.506424	830.908936	55.268312	-236.247841	837.040131	-509.990265	-232.250183	926.585144	-116.234032	-220.677444	922.458435	-345.532867	-445.386505	907.164673	-235.737579	-457.601776	1148.572632	-235.113724	-211.761826	1143.322510	-237.011414	-353.260925	513.238586	-64.469604	-358.335693	452.399048	-113.265373	-399.008545	244.432724	-71.601616	-351.397949	99.740990	-119.610947	-456.092041	48.978970	-185.536102	-289.054626	49.812424	-166.393158	-334.277008	528.039185	-427.327637	-348.650726	454.285431	-354.472809	-386.667419	242.430542	-389.711884	-400.366760	75.800819	-312.011658	-442.748505	46.251228	-261.551453	-271.969910	48.559067	-281.008209
111	1.10000000	-322.169067	1363.031494	-74.559837	-340.125366	1345.799438	-418.346985	-401.544647	1415.827759	-229.674072	-258.974609	1319.407715	-240.350525	-340.811676	1055.935669	43.015324	-351.329956	1040.843506	-505.932861	-263.625214	830.915039	55.218540	-236.262375	837.040070	-509.898911	-232.287231	926.597473	-116.304054	-220.677261	922.457214	-345.533600	-445.388977	907.171204	-235.733871	-457.596436	1148.570435	-235.114487	-211.772537	1143.327515	-237.049667	-353.247345	513.214172	-64.486504	-358.292419	452.462463	-113.289032	-398.982452	244.495621	-71.660446	-351.435120	99.765778	-119.580956	-456.060242	48.989780	-185.582260	-289.056915	49.822376	-166.410217	-334.351990	527.981934	-427.321350	-348.713776	454.243134	-354.392303	-386.638855	242.453278	-389.730774	-400.372009	75.795898	-312.014404	-442.780792	46.234447	-261.520844	-271.972565	48.546028	-281.021484
